G04 ================== begin FILE IDENTIFICATION RECORD ==================*
G04 Layout Name:  F:/projects/sniffer/uart/pcb-layout/uart-sniffer.brd*
G04 Film Name:    uart-sniffer-CUTOUT-v1*
G04 File Format:  Gerber RS274X*
G04 File Origin:  Cadence Allegro 17.2-S025*
G04 Origin Date:  Sun Jun 20 09:50:52 2021*
G04 *
G04 Layer:  BOARD GEOMETRY/DESIGN_OUTLINE*
G04 Layer:  BOARD GEOMETRY/CUTOUT*
G04 *
G04 Offset:    (0.0000 0.0000)*
G04 Mirror:    No*
G04 Mode:      Positive*
G04 Rotation:  0*
G04 FullContactRelief:  No*
G04 UndefLineWidth:     0.0100*
G04 ================== end FILE IDENTIFICATION RECORD ====================*
%FSLAX55Y55*MOIN*%
%IR0*IPPOS*OFA0.00000B0.00000*MIA0B0*SFA1.00000B1.00000*%
%ADD10C,.01*%
G75*
%LPD*%
G75*
G54D10*
G01X415000Y320000D02*
Y530000D01*
X685000D01*
Y320000D01*
X415000D01*
G01X586000Y322500D02*
X586500D01*
G03X587500Y323500I0J1000D01*
G01Y526500D01*
G03X586500Y527500I-1000J0D01*
G01X586000D01*
G03X585000Y526500I0J-1000D01*
G01Y323500D01*
G03X586000Y322500I1000J0D01*
G01X591000Y362500D02*
X681500D01*
G03X682500Y363500I0J1000D01*
G01Y364000D01*
G03X681500Y365000I-1000J0D01*
G01X591000D01*
G03X590000Y364000I0J-1000D01*
G01Y363500D01*
G03X591000Y362500I1000J0D01*
G01Y400000D02*
X681500D01*
G03X682500Y401000I0J1000D01*
G01Y401500D01*
G03X681500Y402500I-1000J0D01*
G01X591000D01*
G03X590000Y401500I0J-1000D01*
G01Y401000D01*
G03X591000Y400000I1000J0D01*
G01Y442500D02*
X681500D01*
G03X682500Y443500I0J1000D01*
G01Y444000D01*
G03X681500Y445000I-1000J0D01*
G01X591000D01*
G03X590000Y444000I0J-1000D01*
G01Y443500D01*
G03X591000Y442500I1000J0D01*
G01Y485000D02*
X681500D01*
G03X682500Y486000I0J1000D01*
G01Y486500D01*
G03X681500Y487500I-1000J0D01*
G01X591000D01*
G03X590000Y486500I0J-1000D01*
G01Y486000D01*
G03X591000Y485000I1000J0D01*
M02*
