G04 ================== begin FILE IDENTIFICATION RECORD ==================*
G04 Layout Name:  F:/projects/sniffer/uart/pcb-layout/uart-sniffer.brd*
G04 Film Name:    uart-sniffer-SILKBOT-v1*
G04 File Format:  Gerber RS274X*
G04 File Origin:  Cadence Allegro 17.2-S025*
G04 Origin Date:  Sun Jun 20 09:50:52 2021*
G04 *
G04 Layer:  REF DES/SILKSCREEN_BOTTOM*
G04 Layer:  PACKAGE GEOMETRY/SILKSCREEN_BOTTOM*
G04 Layer:  BOARD GEOMETRY/SILKSCREEN_BOTTOM*
G04 Layer:  BOARD GEOMETRY/DESIGN_OUTLINE*
G04 *
G04 Offset:    (0.0000 0.0000)*
G04 Mirror:    No*
G04 Mode:      Positive*
G04 Rotation:  0*
G04 FullContactRelief:  No*
G04 UndefLineWidth:     0.0100*
G04 ================== end FILE IDENTIFICATION RECORD ====================*
%FSLAX55Y55*MOIN*%
%IR0*IPPOS*OFA0.00000B0.00000*MIA0B0*SFA1.00000B1.00000*%
%ADD10C,.004*%
%ADD11C,.006*%
%ADD12C,.008*%
%ADD13C,.01*%
G75*
%LPD*%
G75*
G54D10*
G01X469800Y506700D02*
G02X470200I200J0D01*
G02X469800I-200J0D01*
G01X466500Y507000D02*
G02X466900I200J0D01*
G02X466500I-200J0D01*
G01X469800Y513300D02*
G02X470200I200J0D01*
G02X469800I-200J0D01*
G01X466500Y513000D02*
G03X466900I200J0D01*
G03X466500I-200J0D01*
G01X504700Y468200D02*
G02X504300I-200J0D01*
G02X504700I200J0D01*
G01X491400D02*
G02X491000I-200J0D01*
G02X491400I200J0D01*
G01X504700Y474800D02*
G02X504300I-200J0D01*
G02X504700I200J0D01*
G01X491400D02*
G02X491000I-200J0D01*
G02X491400I200J0D01*
G01X508000Y468500D02*
G03X507600I-200J0D01*
G03X508000I200J0D01*
G01Y474500D02*
G02X507600I-200J0D01*
G02X508000I200J0D01*
G01X491400Y468200D02*
G02X491000I-200J0D01*
G02X491400I200J0D01*
G01Y474800D02*
G02X491000I-200J0D01*
G02X491400I200J0D01*
G01X483100Y506700D02*
G02X483500I200J0D01*
G02X483100I-200J0D01*
G01D02*
G02X483500I200J0D01*
G02X483100I-200J0D01*
G01Y513300D02*
G02X483500I200J0D01*
G02X483100I-200J0D01*
G01D02*
G02X483500I200J0D01*
G02X483100I-200J0D01*
G54D11*
G01X478050Y473750D02*
Y467300D01*
G01D02*
X489550D01*
G01Y473750D02*
X478050D01*
G01X477200Y485750D02*
Y478250D01*
G01D02*
X493200D01*
G01Y485750D02*
X477200D01*
G01X489550Y467300D02*
Y473750D01*
G01X493200Y478250D02*
Y485750D01*
G01X543250Y467950D02*
X536800D01*
G01D02*
Y456450D01*
G01D02*
X543250D01*
G01X536800Y487950D02*
Y476450D01*
G01D02*
X543250D01*
G01Y487950D02*
X536800D01*
G01X528750Y507950D02*
X522300D01*
G01D02*
Y496450D01*
G01D02*
X528750D01*
G01D02*
Y507950D01*
G01X543250Y456450D02*
Y467950D01*
G01Y476450D02*
Y487950D01*
G54D12*
G01X470000Y506700D02*
X483300D01*
G01X470200Y513300D02*
X467000D01*
X466700Y513000D01*
Y507000D01*
X467000Y506700D01*
X470200D01*
G01X470000Y513300D02*
X483300D01*
G01X504500Y468200D02*
X491200D01*
G01X504500Y474800D02*
X491200D01*
G01Y468200D02*
Y474800D01*
G01X504300Y468200D02*
X507500D01*
X507800Y468500D01*
Y474500D01*
X507500Y474800D01*
X504300D01*
G01X483300Y513300D02*
Y506700D01*
G54D13*
G01X415000Y320000D02*
Y530000D01*
X685000D01*
Y320000D01*
X415000D01*
G01X471710Y473580D02*
X472090Y473830D01*
X472530Y474000D01*
X473040D01*
X473610Y473750D01*
X474050Y473330D01*
X474370Y472830D01*
X474620Y472000D01*
X474680Y471250D01*
X474560Y470500D01*
X474370Y470000D01*
X473990Y469500D01*
X473540Y469170D01*
X473100Y469000D01*
X472660D01*
X472210Y469170D01*
X471830Y469420D01*
X471520Y469750D01*
G01X467240Y469000D02*
Y474000D01*
X469580Y470420D01*
X466420D01*
G01X491710Y511580D02*
X492090Y511830D01*
X492530Y512000D01*
X493040D01*
X493610Y511750D01*
X494050Y511330D01*
X494370Y510830D01*
X494620Y510000D01*
X494680Y509250D01*
X494560Y508500D01*
X494370Y508000D01*
X493990Y507500D01*
X493540Y507170D01*
X493100Y507000D01*
X492660D01*
X492210Y507170D01*
X491830Y507420D01*
X491520Y507750D01*
G01X489200Y511170D02*
X488820Y511670D01*
X488380Y511920D01*
X487870Y512000D01*
X487240Y511830D01*
X486800Y511420D01*
X486670Y510920D01*
X486730Y510420D01*
X486990Y510000D01*
X488250Y509170D01*
X488820Y508580D01*
X489200Y507750D01*
X489330Y507000D01*
X486670D01*
G01X502210Y488580D02*
X502590Y488830D01*
X503030Y489000D01*
X503540D01*
X504110Y488750D01*
X504550Y488330D01*
X504870Y487830D01*
X505120Y487000D01*
X505180Y486250D01*
X505060Y485500D01*
X504870Y485000D01*
X504490Y484500D01*
X504040Y484170D01*
X503600Y484000D01*
X503160D01*
X502710Y484170D01*
X502330Y484420D01*
X502020Y484750D01*
G01X499890Y485000D02*
X499510Y484420D01*
X499010Y484080D01*
X498440Y484000D01*
X497930Y484080D01*
X497420Y484500D01*
X497110Y485000D01*
X497040Y485500D01*
X497170Y486080D01*
X497610Y486500D01*
X498060Y486670D01*
X498630D01*
G01X498060D02*
X497680Y486920D01*
X497360Y487330D01*
X497230Y487830D01*
X497360Y488330D01*
X497680Y488750D01*
X498250Y489000D01*
X498820Y488920D01*
X499390Y488580D01*
G01X515710Y473580D02*
X516090Y473830D01*
X516530Y474000D01*
X517040D01*
X517610Y473750D01*
X518050Y473330D01*
X518370Y472830D01*
X518620Y472000D01*
X518680Y471250D01*
X518560Y470500D01*
X518370Y470000D01*
X517990Y469500D01*
X517540Y469170D01*
X517100Y469000D01*
X516660D01*
X516210Y469170D01*
X515830Y469420D01*
X515520Y469750D01*
G01X513390D02*
X513010Y469330D01*
X512570Y469080D01*
X512000Y469000D01*
X511430Y469170D01*
X510990Y469500D01*
X510670Y470080D01*
X510610Y470750D01*
X510730Y471420D01*
X511050Y471830D01*
X511490Y472170D01*
X511940Y472250D01*
X512380Y472170D01*
X512950Y471830D01*
X512760Y474000D01*
X511050D01*
G01X530870Y511000D02*
Y516000D01*
X529280D01*
X528780Y515750D01*
X528460Y515420D01*
X528330Y514750D01*
X528460Y514080D01*
X528840Y513670D01*
X529280Y513420D01*
X530870D01*
G01X529280D02*
X528330Y511000D01*
G01X524500D02*
Y516000D01*
X525260Y515000D01*
G01Y511000D02*
X523740D01*
G01X520600Y515170D02*
X520220Y515670D01*
X519780Y515920D01*
X519270Y516000D01*
X518640Y515830D01*
X518200Y515420D01*
X518070Y514920D01*
X518130Y514420D01*
X518390Y514000D01*
X519650Y513170D01*
X520220Y512580D01*
X520600Y511750D01*
X520730Y511000D01*
X518070D01*
G01X551710Y464580D02*
X552090Y464830D01*
X552530Y465000D01*
X553040D01*
X553610Y464750D01*
X554050Y464330D01*
X554370Y463830D01*
X554620Y463000D01*
X554680Y462250D01*
X554560Y461500D01*
X554370Y461000D01*
X553990Y460500D01*
X553540Y460170D01*
X553100Y460000D01*
X552660D01*
X552210Y460170D01*
X551830Y460420D01*
X551520Y460750D01*
G01X549200Y462080D02*
X548760Y462670D01*
X548380Y463000D01*
X547870Y463170D01*
X547430Y463000D01*
X547110Y462670D01*
X546860Y462170D01*
X546800Y461580D01*
X546860Y461080D01*
X547110Y460580D01*
X547490Y460170D01*
X547940Y460000D01*
X548440Y460170D01*
X548890Y460670D01*
X549140Y461420D01*
X549200Y462250D01*
X549080Y463330D01*
X548890Y463920D01*
X548570Y464500D01*
X548130Y464920D01*
X547680Y465000D01*
X547240Y464830D01*
X546920Y464420D01*
G01X551710Y484580D02*
X552090Y484830D01*
X552530Y485000D01*
X553040D01*
X553610Y484750D01*
X554050Y484330D01*
X554370Y483830D01*
X554620Y483000D01*
X554680Y482250D01*
X554560Y481500D01*
X554370Y481000D01*
X553990Y480500D01*
X553540Y480170D01*
X553100Y480000D01*
X552660D01*
X552210Y480170D01*
X551830Y480420D01*
X551520Y480750D01*
G01X549080Y480580D02*
X548630Y480170D01*
X548130Y480000D01*
X547620Y480170D01*
X547180Y480670D01*
X546860Y481420D01*
X546730Y482170D01*
Y483080D01*
X546860Y483830D01*
X547180Y484500D01*
X547560Y484830D01*
X548000Y485000D01*
X548510Y484830D01*
X548890Y484500D01*
X549140Y484000D01*
X549270Y483330D01*
X549140Y482750D01*
X548820Y482170D01*
X548440Y481830D01*
X548000Y481750D01*
X547490Y481920D01*
X547110Y482330D01*
X546730Y483080D01*
G01X680000Y367500D02*
X650000D01*
Y397500D01*
X680000D01*
Y367500D01*
G01X665000Y450000D02*
X635000D01*
Y480000D01*
X665000D01*
Y450000D01*
G01X721370Y410000D02*
Y415000D01*
X719850D01*
X719340Y414750D01*
X718960Y414170D01*
X718830Y413500D01*
X718960Y412830D01*
X719280Y412330D01*
X719850Y412080D01*
X721370D01*
G01X716390Y411000D02*
X716010Y410420D01*
X715510Y410080D01*
X714940Y410000D01*
X714430Y410080D01*
X713920Y410500D01*
X713610Y411000D01*
X713540Y411500D01*
X713670Y412080D01*
X714110Y412500D01*
X714560Y412670D01*
X715130D01*
G01X714560D02*
X714180Y412920D01*
X713860Y413330D01*
X713730Y413830D01*
X713860Y414330D01*
X714180Y414750D01*
X714750Y415000D01*
X715320Y414920D01*
X715890Y414580D01*
G01X710370Y476000D02*
Y481000D01*
X708850D01*
X708340Y480750D01*
X707960Y480170D01*
X707830Y479500D01*
X707960Y478830D01*
X708280Y478330D01*
X708850Y478080D01*
X710370D01*
G01X705200D02*
X704760Y478670D01*
X704380Y479000D01*
X703870Y479170D01*
X703430Y479000D01*
X703110Y478670D01*
X702860Y478170D01*
X702800Y477580D01*
X702860Y477080D01*
X703110Y476580D01*
X703490Y476170D01*
X703940Y476000D01*
X704440Y476170D01*
X704890Y476670D01*
X705140Y477420D01*
X705200Y478250D01*
X705080Y479330D01*
X704890Y479920D01*
X704570Y480500D01*
X704130Y480920D01*
X703680Y481000D01*
X703240Y480830D01*
X702920Y480420D01*
M02*
