G04 ================== begin FILE IDENTIFICATION RECORD ==================*
G04 Layout Name:  F:/projects/sniffer/uart/pcb-layout/uart-sniffer.brd*
G04 Film Name:    uart-sniffer-SOLDERMASKTOP-v1*
G04 File Format:  Gerber RS274X*
G04 File Origin:  Cadence Allegro 17.2-S025*
G04 Origin Date:  Sun Jun 20 09:50:52 2021*
G04 *
G04 Layer:  PIN/SOLDERMASK_TOP*
G04 Layer:  PACKAGE GEOMETRY/SOLDERMASK_TOP*
G04 Layer:  BOARD GEOMETRY/DESIGN_OUTLINE*
G04 *
G04 Offset:    (0.0000 0.0000)*
G04 Mirror:    No*
G04 Mode:      Positive*
G04 Rotation:  0*
G04 FullContactRelief:  No*
G04 UndefLineWidth:     0.0100*
G04 ================== end FILE IDENTIFICATION RECORD ====================*
%FSLAX55Y55*MOIN*%
%IR0*IPPOS*OFA0.00000B0.00000*MIA0B0*SFA1.00000B1.00000*%
%ADD34C,.1024*%
%ADD12C,.2362*%
%ADD28O,.0709X.1417*%
%ADD29O,.1417X.0709*%
%ADD18R,.1417X.0866*%
%AMMACRO30*
4,1,44,.026,-.0079,
-.026,-.0079,
-.026345,-.007872,
-.02668,-.007785,
-.026995,-.00764,
-.02728,-.007444,
-.027527,-.0072,
-.027727,-.006918,
-.027876,-.006605,
-.027968,-.006271,
-.028,-.005926,
-.028,-.0059,
-.028,.0059,
-.027972,.006245,
-.027885,.00658,
-.02774,.006895,
-.027544,.00718,
-.0273,.007427,
-.027018,.007627,
-.026705,.007776,
-.026371,.007868,
-.026026,.0079,
-.026,.0079,
.026,.0079,
.026345,.007872,
.02668,.007785,
.026995,.00764,
.02728,.007444,
.027527,.0072,
.027727,.006918,
.027876,.006605,
.027968,.006271,
.028,.005926,
.028,.0059,
.028,-.0059,
.027972,-.006245,
.027885,-.00658,
.02774,-.006895,
.027544,-.00718,
.0273,-.007427,
.027018,-.007627,
.026705,-.007776,
.026371,-.007868,
.026026,-.0079,
.026,-.0079,
0.0*
%
%ADD30MACRO30*%
%AMMACRO27*
4,1,40,-.0051,-.0153,
-.0051,.0153,
-.005071,.015518,
-.005004,.015727,
-.004902,.015921,
-.004768,.016095,
-.004605,.016243,
-.00442,.01636,
-.004217,.016444,
-.004002,.01649,
-.0038,.0165,
.0038,.0165,
.004019,.016488,
.004233,.016438,
.004435,.016352,
.004619,.016232,
.004779,.016082,
.004911,.015907,
.00501,.015711,
.005074,.015501,
.0051,.0153,
.0051,-.0153,
.005071,-.015518,
.005004,-.015727,
.004902,-.015921,
.004768,-.016095,
.004605,-.016243,
.00442,-.01636,
.004217,-.016444,
.004002,-.01649,
.0038,-.0165,
-.0038,-.0165,
-.004019,-.016488,
-.004233,-.016438,
-.004435,-.016352,
-.004619,-.016232,
-.004779,-.016082,
-.004911,-.015907,
-.00501,-.015711,
-.005074,-.015501,
-.0051,-.0153,
0.0*
%
%ADD27MACRO27*%
%AMMACRO25*
4,1,40,-.0153,.0051,
.0153,.0051,
.015518,.005071,
.015727,.005004,
.015921,.004902,
.016095,.004768,
.016243,.004605,
.01636,.00442,
.016444,.004217,
.01649,.004002,
.0165,.0038,
.0165,-.0038,
.016488,-.004019,
.016438,-.004233,
.016352,-.004435,
.016232,-.004619,
.016082,-.004779,
.015907,-.004911,
.015711,-.00501,
.015501,-.005074,
.0153,-.0051,
-.0153,-.0051,
-.015518,-.005071,
-.015727,-.005004,
-.015921,-.004902,
-.016095,-.004768,
-.016243,-.004605,
-.01636,-.00442,
-.016444,-.004217,
-.01649,-.004002,
-.0165,-.0038,
-.0165,.0038,
-.016488,.004019,
-.016438,.004233,
-.016352,.004435,
-.016232,.004619,
-.016082,.004779,
-.015907,.004911,
-.015711,.00501,
-.015501,.005074,
-.0153,.0051,
0.0*
%
%ADD25MACRO25*%
%ADD15R,.032X.038*%
%ADD32R,.038X.032*%
%ADD21C,.065*%
%ADD33R,.092X.064*%
%ADD26R,.1417X.1417*%
%ADD20R,.0531X.0157*%
%ADD11R,.061X.0591*%
%ADD24R,.0551X.0394*%
%ADD23R,.065X.065*%
%ADD31R,.0394X.0551*%
%ADD22C,.0748*%
%ADD19O,.0394X.0591*%
%ADD16R,.048X.088*%
%ADD13C,.0866*%
%ADD17R,.0717X.0457*%
%ADD14R,.0457X.0717*%
%ADD10O,.0787X.0394*%
%ADD35C,.01*%
G75*
%LPD*%
G75*
G36*
G01X418060Y465830D02*
Y471340D01*
X424940D01*
Y465830D01*
G02X422980Y463860I-1966J-4D01*
G01X420020D01*
G02X418060Y465830I6J1966D01*
G37*
G36*
G01X424940Y494170D02*
Y488660D01*
X418060D01*
Y494170D01*
G02X420020Y496140I1966J4D01*
G01X422980D01*
G02X424940Y494170I-6J-1966D01*
G37*
G54D10*
X421500Y466220D03*
Y493780D03*
G54D11*
Y476060D03*
Y483940D03*
G54D20*
X432130Y474880D03*
Y477440D03*
Y480000D03*
Y482560D03*
Y485120D03*
G54D21*
X450000Y520000D03*
X460500Y371660D03*
X460000Y520000D03*
X483730Y371660D03*
Y381500D03*
X535000Y415000D03*
Y425000D03*
G54D30*
X539970Y480720D03*
Y478160D03*
X526030D03*
Y480720D03*
X539970Y465840D03*
Y463280D03*
Y460720D03*
Y458160D03*
X526030D03*
Y460720D03*
Y463280D03*
Y465840D03*
X539970Y485840D03*
Y483280D03*
X526030D03*
Y485840D03*
G54D12*
X432000Y337000D03*
Y513000D03*
X572000Y337000D03*
X571000Y513000D03*
G54D13*
X425000Y355000D03*
Y370000D03*
X440000Y385000D03*
X425000D03*
Y400000D03*
Y415000D03*
Y430000D03*
X480000Y440000D03*
X475000Y520000D03*
X510000Y440000D03*
X495000D03*
X490000Y475500D03*
X505000Y520000D03*
X490000D03*
X525000Y440000D03*
X520000Y520000D03*
X578000Y385000D03*
Y370000D03*
Y415000D03*
Y445000D03*
Y431000D03*
Y460000D03*
Y475000D03*
X655000Y382500D03*
X665000D03*
Y422500D03*
Y465000D03*
G54D22*
X480780Y326780D03*
X463450D03*
G54D31*
X525000Y501670D03*
X521260Y510330D03*
X528740D03*
X541260Y509670D03*
X548740D03*
X545000Y518330D03*
X578000Y495330D03*
X581740Y486670D03*
X574260D03*
G54D14*
X438190Y408000D03*
X449810D03*
X449190Y510000D03*
X477690Y427000D03*
X460810Y510000D03*
X506310Y409000D03*
X494690D03*
X506310Y394000D03*
X494690D03*
X489310Y427000D03*
G54D23*
X460500Y381500D03*
G54D32*
X535000Y500000D03*
Y494400D03*
X560000Y460000D03*
Y454400D03*
X551500Y494500D03*
Y500100D03*
X543000Y494500D03*
Y500100D03*
X567500Y492500D03*
Y486900D03*
G54D24*
X464670Y401500D03*
X473330Y405240D03*
Y397760D03*
G54D33*
X615000Y342500D03*
X625000Y422500D03*
X660000Y342500D03*
G54D15*
X449500Y397000D03*
X443900D03*
X449400Y480000D03*
Y471000D03*
Y462000D03*
Y490000D03*
X455000Y480000D03*
Y471000D03*
Y462000D03*
Y490000D03*
X470000Y510000D03*
X475600D03*
X495000Y505000D03*
X500600D03*
G54D16*
X450000Y422800D03*
X440900D03*
X459100D03*
G54D25*
X480410Y468110D03*
Y470080D03*
Y472050D03*
Y474020D03*
Y475980D03*
Y477950D03*
Y479920D03*
Y481890D03*
X499590Y479920D03*
Y477950D03*
Y475980D03*
Y474020D03*
Y472050D03*
Y470080D03*
Y468110D03*
Y481890D03*
G54D34*
X655000Y392500D03*
Y372500D03*
X645000Y392500D03*
X665000D03*
Y372500D03*
X645000D03*
X655000Y412500D03*
Y455000D03*
Y432500D03*
Y475000D03*
X675000Y392500D03*
Y372500D03*
Y412500D03*
Y455000D03*
Y432500D03*
Y475000D03*
G54D35*
G01X415000Y320000D02*
Y530000D01*
X685000D01*
Y320000D01*
X415000D01*
G54D17*
X425000Y439190D03*
Y450810D03*
G54D26*
X490000Y475000D03*
G54D27*
X496890Y465410D03*
X494920D03*
X492950D03*
X490980D03*
X489020D03*
X487050D03*
X485080D03*
X483110D03*
X496890Y484590D03*
X483110D03*
X485080D03*
X487050D03*
X489020D03*
X490980D03*
X492950D03*
X494920D03*
G54D18*
X450000Y447200D03*
G54D19*
X432130Y470160D03*
Y489840D03*
G54D28*
X541900Y361730D03*
G54D29*
X523000Y350710D03*
Y373540D03*
M02*
